<?xml version="1.0" encoding="UTF-8"?>
<svg id="Layer_1" xmlns="http://www.w3.org/2000/svg" xmlns:xlink="http://www.w3.org/1999/xlink" version="1.1" viewBox="0 0 36 40">
  <!-- Generator: Adobe Illustrator 29.8.1, SVG Export Plug-In . SVG Version: 2.1.1 Build 2)  -->
  <defs>
    <style>
      .st0 {
        fill: none;
      }

      .st1 {
        fill: #fff;
      }

      .st2 {
        clip-path: url(#clippath);
      }
    </style>
    <clipPath id="clippath">
      <rect class="st0" width="35.1" height="40"/>
    </clipPath>
  </defs>
  <g class="st2">
    <g>
      <path class="st1" d="M2.2,18.2v5.8c0,2.4,1.1,4.7,2.9,6.2l11.5,9.6c.5.4,1.2.3,1.6,0,.4-.5.3-1.1-.1-1.5l-3.2-2.8c-.1,0-.2-.4,0-.5h.5l3.8,3c.5.4,1.3.4,1.8-.2.5-.5.4-1.4-.1-1.9l-3.3-2.7c-.2,0-.2-.4,0-.6s.4,0,.5,0l4.2,3.4c.6.5,1.4.4,1.9-.2.5-.6.4-1.5-.2-1.9l-3.7-3c-.2-.2-.2-.5,0-.7s.4-.2.6,0l4.2,3.5c.6.5,1.4.4,1.9,0,.5-.6.5-1.5-.1-2l-8.3-6.8c-.5-.4-1.1-.4-1.6,0l-2.6,1.7c-1,.7-2.3.6-3.2-.2-.7-.6-.7-1.6-.1-2.3l2.3-2.5c-3.7-.3-9.3-1.4-11.1-3.1h0v-.3h0Z"/>
      <path class="st1" d="M32.9,18.2v7.2c0,1.4-.6,2.7-1.6,3.7l-3,2.6-9.5-8c-.6-.5-1.4-.5-2,0l-3.4,2.3c-.5.3-1.1.3-1.6-.1-.5-.5-.6-1.3,0-1.8l2.5-2.5c8.6.3,15.3-1.2,18.6-3.3h0Z"/>
      <path class="st1" d="M32.9,13.6s-.4-7.8-7.1-11.6v.2h0l-4.4,6.9c-.2.3-.6.2-.5-.2l2.2-7.6v-.2s.1-.1.2-.2c-1-.3-2.2-.6-3.4-.8l-2,10.7c0,.4-.5.4-.6,0L15.2,0c-1.3.1-2.5.4-3.6.8.1,0,.2,0,.3.2h0l2.3,7.8c.1.4-.3.6-.5.2l-4.4-6.8v-.4C2.9,5.6,2.4,13.6,2.4,13.6H0v2.1c2.8,3,10.8,4.4,17.5,4.4s13.3-1.4,17.5-4.2v-2.3h-2.2.1Z"/>
    </g>
  </g>
</svg>